<mxfile host="app.diagrams.net" modified="2024-06-22T20:04:31.956Z" agent="Mozilla/5.0 (X11; Linux x86_64) AppleWebKit/537.36 (KHTML, like Gecko) Chrome/126.0.0.0 Safari/537.36" etag="BulE92T6irCGC3kV1DcD" version="24.6.2" type="github">
  <diagram name="Page-1" id="KSTe22ITuonG7fZx6vX5">
    <mxGraphModel dx="1179" dy="793" grid="1" gridSize="10" guides="1" tooltips="1" connect="1" arrows="1" fold="1" page="1" pageScale="1" pageWidth="850" pageHeight="1100" math="0" shadow="0">
      <root>
        <mxCell id="0" />
        <mxCell id="1" parent="0" />
        <mxCell id="OE5XGP_2OzpR8p01cOYG-47" style="edgeStyle=orthogonalEdgeStyle;rounded=0;orthogonalLoop=1;jettySize=auto;html=1;entryX=0.5;entryY=0;entryDx=0;entryDy=0;" edge="1" parent="1" source="OE5XGP_2OzpR8p01cOYG-34" target="OE5XGP_2OzpR8p01cOYG-35">
          <mxGeometry relative="1" as="geometry" />
        </mxCell>
        <mxCell id="OE5XGP_2OzpR8p01cOYG-34" value="" style="rounded=1;whiteSpace=wrap;html=1;" vertex="1" parent="1">
          <mxGeometry x="365" y="670" width="120" height="60" as="geometry" />
        </mxCell>
        <mxCell id="OE5XGP_2OzpR8p01cOYG-42" style="edgeStyle=orthogonalEdgeStyle;rounded=0;orthogonalLoop=1;jettySize=auto;html=1;" edge="1" parent="1" source="OE5XGP_2OzpR8p01cOYG-19">
          <mxGeometry relative="1" as="geometry">
            <mxPoint x="310" y="240" as="targetPoint" />
          </mxGeometry>
        </mxCell>
        <mxCell id="OE5XGP_2OzpR8p01cOYG-44" style="edgeStyle=orthogonalEdgeStyle;rounded=0;orthogonalLoop=1;jettySize=auto;html=1;entryX=0.5;entryY=0;entryDx=0;entryDy=0;" edge="1" parent="1" source="OE5XGP_2OzpR8p01cOYG-19" target="OE5XGP_2OzpR8p01cOYG-28">
          <mxGeometry relative="1" as="geometry" />
        </mxCell>
        <mxCell id="OE5XGP_2OzpR8p01cOYG-19" value="" style="rhombus;whiteSpace=wrap;html=1;" vertex="1" parent="1">
          <mxGeometry x="360" y="365" width="130" height="130" as="geometry" />
        </mxCell>
        <mxCell id="OE5XGP_2OzpR8p01cOYG-2" style="edgeStyle=orthogonalEdgeStyle;rounded=0;orthogonalLoop=1;jettySize=auto;html=1;" edge="1" parent="1" source="OE5XGP_2OzpR8p01cOYG-1">
          <mxGeometry relative="1" as="geometry">
            <mxPoint x="425" y="170" as="targetPoint" />
          </mxGeometry>
        </mxCell>
        <mxCell id="OE5XGP_2OzpR8p01cOYG-1" value="" style="rounded=1;whiteSpace=wrap;html=1;" vertex="1" parent="1">
          <mxGeometry x="365" y="50" width="120" height="60" as="geometry" />
        </mxCell>
        <mxCell id="OE5XGP_2OzpR8p01cOYG-41" style="edgeStyle=orthogonalEdgeStyle;rounded=0;orthogonalLoop=1;jettySize=auto;html=1;entryX=0.5;entryY=0;entryDx=0;entryDy=0;" edge="1" parent="1" source="OE5XGP_2OzpR8p01cOYG-4" target="OE5XGP_2OzpR8p01cOYG-19">
          <mxGeometry relative="1" as="geometry" />
        </mxCell>
        <mxCell id="OE5XGP_2OzpR8p01cOYG-4" value="" style="rhombus;whiteSpace=wrap;html=1;" vertex="1" parent="1">
          <mxGeometry x="360" y="170" width="130" height="130" as="geometry" />
        </mxCell>
        <mxCell id="OE5XGP_2OzpR8p01cOYG-6" value="" style="endArrow=classic;html=1;rounded=0;exitX=0;exitY=0.5;exitDx=0;exitDy=0;" edge="1" parent="1" source="OE5XGP_2OzpR8p01cOYG-4">
          <mxGeometry width="50" height="50" relative="1" as="geometry">
            <mxPoint x="340" y="210" as="sourcePoint" />
            <mxPoint x="230" y="235" as="targetPoint" />
          </mxGeometry>
        </mxCell>
        <mxCell id="OE5XGP_2OzpR8p01cOYG-7" value="" style="rounded=1;whiteSpace=wrap;html=1;" vertex="1" parent="1">
          <mxGeometry x="110" y="205" width="120" height="60" as="geometry" />
        </mxCell>
        <mxCell id="OE5XGP_2OzpR8p01cOYG-8" value="" style="endArrow=classic;html=1;rounded=0;exitX=0.5;exitY=1;exitDx=0;exitDy=0;" edge="1" parent="1" source="OE5XGP_2OzpR8p01cOYG-7">
          <mxGeometry width="50" height="50" relative="1" as="geometry">
            <mxPoint x="230" y="330" as="sourcePoint" />
            <mxPoint x="170" y="350" as="targetPoint" />
          </mxGeometry>
        </mxCell>
        <mxCell id="OE5XGP_2OzpR8p01cOYG-9" value="" style="rounded=1;whiteSpace=wrap;html=1;" vertex="1" parent="1">
          <mxGeometry x="110" y="350" width="120" height="60" as="geometry" />
        </mxCell>
        <mxCell id="OE5XGP_2OzpR8p01cOYG-10" value="Start" style="text;strokeColor=none;align=center;fillColor=none;html=1;verticalAlign=middle;whiteSpace=wrap;rounded=0;" vertex="1" parent="1">
          <mxGeometry x="393" y="62.5" width="65" height="35" as="geometry" />
        </mxCell>
        <mxCell id="OE5XGP_2OzpR8p01cOYG-11" value="Oasis" style="text;strokeColor=none;align=center;fillColor=none;html=1;verticalAlign=middle;whiteSpace=wrap;rounded=0;" vertex="1" parent="1">
          <mxGeometry x="140" y="220" width="60" height="30" as="geometry" />
        </mxCell>
        <mxCell id="OE5XGP_2OzpR8p01cOYG-12" value="Death" style="text;strokeColor=none;align=center;fillColor=none;html=1;verticalAlign=middle;whiteSpace=wrap;rounded=0;" vertex="1" parent="1">
          <mxGeometry x="140" y="365" width="60" height="30" as="geometry" />
        </mxCell>
        <mxCell id="OE5XGP_2OzpR8p01cOYG-14" value="Radio Tower" style="text;strokeColor=none;align=center;fillColor=none;html=1;verticalAlign=middle;whiteSpace=wrap;rounded=0;" vertex="1" parent="1">
          <mxGeometry x="393" y="410" width="65" height="35" as="geometry" />
        </mxCell>
        <mxCell id="OE5XGP_2OzpR8p01cOYG-21" value="Wasteland" style="text;strokeColor=none;align=center;fillColor=none;html=1;verticalAlign=middle;whiteSpace=wrap;rounded=0;" vertex="1" parent="1">
          <mxGeometry x="393" y="217.5" width="65" height="35" as="geometry" />
        </mxCell>
        <mxCell id="OE5XGP_2OzpR8p01cOYG-23" value="Head To Oasis" style="text;strokeColor=none;align=center;fillColor=none;html=1;verticalAlign=middle;whiteSpace=wrap;rounded=0;" vertex="1" parent="1">
          <mxGeometry x="270" y="185" width="65" height="35" as="geometry" />
        </mxCell>
        <mxCell id="OE5XGP_2OzpR8p01cOYG-24" value="Follow Radio Signal" style="text;strokeColor=none;align=center;fillColor=none;html=1;verticalAlign=middle;whiteSpace=wrap;rounded=0;" vertex="1" parent="1">
          <mxGeometry x="440" y="300" width="65" height="35" as="geometry" />
        </mxCell>
        <mxCell id="OE5XGP_2OzpR8p01cOYG-27" value="Head To Oasis" style="text;strokeColor=none;align=center;fillColor=none;html=1;verticalAlign=middle;whiteSpace=wrap;rounded=0;" vertex="1" parent="1">
          <mxGeometry x="320" y="375" width="65" height="35" as="geometry" />
        </mxCell>
        <mxCell id="OE5XGP_2OzpR8p01cOYG-45" style="edgeStyle=orthogonalEdgeStyle;rounded=0;orthogonalLoop=1;jettySize=auto;html=1;entryX=0.5;entryY=0;entryDx=0;entryDy=0;" edge="1" parent="1" source="OE5XGP_2OzpR8p01cOYG-28" target="OE5XGP_2OzpR8p01cOYG-34">
          <mxGeometry relative="1" as="geometry" />
        </mxCell>
        <mxCell id="OE5XGP_2OzpR8p01cOYG-28" value="" style="rounded=1;whiteSpace=wrap;html=1;" vertex="1" parent="1">
          <mxGeometry x="365" y="560" width="120" height="60" as="geometry" />
        </mxCell>
        <mxCell id="OE5XGP_2OzpR8p01cOYG-32" value="Search Tower" style="text;strokeColor=none;align=center;fillColor=none;html=1;verticalAlign=middle;whiteSpace=wrap;rounded=0;" vertex="1" parent="1">
          <mxGeometry x="390" y="570" width="70" height="40" as="geometry" />
        </mxCell>
        <mxCell id="OE5XGP_2OzpR8p01cOYG-33" value="Head West" style="text;strokeColor=none;align=center;fillColor=none;html=1;verticalAlign=middle;whiteSpace=wrap;rounded=0;" vertex="1" parent="1">
          <mxGeometry x="390" y="680" width="70" height="40" as="geometry" />
        </mxCell>
        <mxCell id="OE5XGP_2OzpR8p01cOYG-48" style="edgeStyle=orthogonalEdgeStyle;rounded=0;orthogonalLoop=1;jettySize=auto;html=1;entryX=0.5;entryY=0;entryDx=0;entryDy=0;" edge="1" parent="1" source="OE5XGP_2OzpR8p01cOYG-35" target="OE5XGP_2OzpR8p01cOYG-37">
          <mxGeometry relative="1" as="geometry" />
        </mxCell>
        <mxCell id="OE5XGP_2OzpR8p01cOYG-35" value="" style="rounded=1;whiteSpace=wrap;html=1;" vertex="1" parent="1">
          <mxGeometry x="365" y="770" width="120" height="60" as="geometry" />
        </mxCell>
        <mxCell id="OE5XGP_2OzpR8p01cOYG-37" value="" style="rounded=1;whiteSpace=wrap;html=1;" vertex="1" parent="1">
          <mxGeometry x="365" y="870" width="120" height="60" as="geometry" />
        </mxCell>
        <mxCell id="OE5XGP_2OzpR8p01cOYG-38" value="Professor" style="text;strokeColor=none;align=center;fillColor=none;html=1;verticalAlign=middle;whiteSpace=wrap;rounded=0;" vertex="1" parent="1">
          <mxGeometry x="390" y="780" width="70" height="40" as="geometry" />
        </mxCell>
        <mxCell id="OE5XGP_2OzpR8p01cOYG-40" value="Head Home" style="text;strokeColor=none;align=center;fillColor=none;html=1;verticalAlign=middle;whiteSpace=wrap;rounded=0;" vertex="1" parent="1">
          <mxGeometry x="393" y="882.5" width="65" height="35" as="geometry" />
        </mxCell>
      </root>
    </mxGraphModel>
  </diagram>
</mxfile>
